<?xml version="1.0" encoding="utf-8"?>
<!-- Generator: Adobe Illustrator 22.1.0, SVG Export Plug-In . SVG Version: 6.00 Build 0)  -->
<svg version="1.1" id="Layer_1" xmlns="http://www.w3.org/2000/svg" xmlns:xlink="http://www.w3.org/1999/xlink" x="0px" y="0px"
	 viewBox="0 0 615 150" style="enable-background:new 0 0 615 150;" xml:space="preserve">
<style type="text/css">
	.st0{fill:#FFFFFF;}
	.st1{fill:#76AEFF;}
</style>
<path class="st0" d="M446.7,84v-5h28.6V64.5c-11.6-2.3-17.9-6.4-17.9-12.3c0-9.8,17.2-14.5,46.3-14.5c29.2,0,46.3,4.7,46.3,14.5
	c0,5.9-6.4,10-17.9,12.3V79h28.6v5H446.7L446.7,84z M481,79h45.4V65.5c-6.4,0.8-14,1.2-22.6,1.2c-8.6,0-16.4-0.4-22.6-1.2L481,79
	L481,79z M532.9,59.4c7.6-1.7,11.3-4,11.3-7.1s-3.8-5.4-11.3-7c-7.1-1.7-17-2.6-29.3-2.6c-12.3,0-22.1,0.8-29.2,2.6
	c-7.6,1.6-11.3,3.9-11.3,7s3.8,5.4,11.3,7.1c7.6,1.6,17.2,2.4,29.2,2.4C515.7,61.8,525.4,61.1,532.9,59.4z M451.6,25.1h49V13.9h5.7
	v11.2h49.5v5H451.6V25.1L451.6,25.1z M419,116.7h-90.8v-5.1H419V95.6h-90.8v-5.2h96.5v42.4H419V116.7z M419,18.5h5.7v62.4H419V18.5
	L419,18.5z M392,64h-22.8v12.3h-47.5V21.2h5.7V42h36.1V21.2h5.7v10.5h22.8V19.3h5.7v60.4h-5.7L392,64L392,64z M363.6,47.1h-36.1
	v24.1h36.1C363.6,71.2,363.6,47.1,363.6,47.1z M392,37h-22.8v21.8H392V37L392,37z M272.2,113.4c-3,4.7-6.9,8.9-11.8,11.9
	c-5,3.2-10.4,5.1-16.1,5.8l-22.6-17.3c-3,4.3-6.9,8.2-11.3,11.2c-5.1,3.4-10.5,5.4-16.3,6.1v-5.2c9.8-1.1,18.9-7.3,24.3-16.7
	c2.7-4.6,4.2-9.6,4.6-14.8l5.6,0.4c-0.4,5.1-1.7,10.1-4.1,14.6l21.4,16.3c8.6-1.7,16.9-7.6,22-16.3c2.7-4.6,4.2-9.6,4.6-15l5.6,0.5
	c-0.4,4.9-1.7,9.6-3.5,14l27.2,18l-2.9,4.3L272.2,113.4L272.2,113.4z M287,18.5h5.7v71.5H287V18.5z M230.6,78.8H187v-5.2h44.1
	c22,0,36.7-1.5,44.1-4.4v5.2C268.1,77.2,253.2,78.8,230.6,78.8z M259,26.6h-30.2v-5.2h35.9v40.3H259V26.6L259,26.6z M214.4,26.6
	h-23.2v-5.2H220v40.3h-5.7L214.4,26.6L214.4,26.6z M159.2,75.4h-5.7v-57h5.7v12.3h17.5V36h-17.5v17.7h17.5v5.2h-17.5V75.4z
	 M166.6,96.8h-54.2v-5.2h24.3V77.9h5.7v13.7h24.3L166.6,96.8L166.6,96.8z M119.2,69.8h-17V22.5h35.5v5.1h-29.9v37h12.2
	c9.1,0,15.9-1,20.8-3.4v5.2C135.5,68.7,128.3,69.8,119.2,69.8L119.2,69.8z M76.3,69.8H61.1V22.5h34.6v5.1H66.7v37h10.1
	c7.9,0,14.5-1,19.7-2.7v5.2C91.6,69,84.9,69.8,76.3,69.8L76.3,69.8z M105.8,110H70.9v15.8H111v5.2H65.2v-26.2h35V88.9H65v-5.2h40.7
	V110H105.8z M139.6,103.3c6.6,0,12.1,1.4,16.6,3.9c4.4,2.5,6.8,6.2,6.8,10.8c0,4.6-2.3,8.2-6.8,10.8c-4.4,2.5-10,3.8-16.6,3.8
	c-6.8,0-12.3-1.2-16.7-3.8c-4.4-2.6-6.6-6.1-6.6-10.8c0-4.7,2.2-8.2,6.6-10.8C127.4,104.6,133,103.3,139.6,103.3z M127.1,125.2
	c3.9,1.5,8.1,2.3,12.5,2.3c4.4,0,8.6-0.8,12.5-2.3c3.7-1.7,5.4-4,5.4-7.1s-1.7-5.5-5.4-7.1c-3.5-1.7-7.7-2.4-12.5-2.4
	s-8.9,0.8-12.5,2.4c-3.5,1.7-5.2,4-5.2,7.1S123.6,123.6,127.1,125.2z M496.1,114.9h-34.8V126h40.1v5.2h-45.8v-21.5h34.9v-11h-35.2
	v-5.2H496L496.1,114.9L496.1,114.9z M527,87.9h5.7v6.4H557v5.2h-54.2v-5.2h24.3L527,87.9L527,87.9z M530,103.4
	c6.6,0,12.2,1.3,16.6,3.9c4.4,2.5,6.8,6.2,6.8,10.8c0,4.6-2.3,8.2-6.8,10.8c-4.4,2.5-10,3.8-16.6,3.8c-6.8,0-12.3-1.2-16.7-3.8
	c-4.4-2.6-6.6-6.1-6.6-10.8c0-4.7,2.2-8.2,6.6-10.8C517.7,104.8,523.3,103.4,530,103.4z M517.4,125.3c3.9,1.5,8.1,2.3,12.5,2.3
	c4.4,0,8.6-0.8,12.5-2.3c3.7-1.7,5.4-4,5.4-7.1s-1.7-5.5-5.4-7.1c-3.5-1.7-7.7-2.4-12.5-2.4c-4.7,0-8.9,0.8-12.5,2.4
	c-3.5,1.7-5.2,4-5.2,7.1C512.2,121.3,513.9,123.7,517.4,125.3z"/>
<path class="st1" d="M185.2,42.4l0.5-0.1c0.1,0.8,0.1,1.5,0.1,2.2h-0.6C185.4,43.9,185.4,43.1,185.2,42.4z M184,53
	c0.2-0.7,0.5-1.4,0.7-2.1l0.5,0.1c-0.2,0.8-0.5,1.4-0.7,2.2L184,53L184,53z M183.9,36.7l0.5-0.2c0.3,0.7,0.5,1.4,0.8,2.2l-0.5,0.1
	C184.4,38,184.1,37.3,183.9,36.7z M181.3,58.3c0.5-0.6,0.8-1.2,1.2-1.9l0.5,0.3c-0.4,0.7-0.8,1.3-1.2,2L181.3,58.3L181.3,58.3z
	 M181,31.5l0.5-0.3c0.5,0.6,0.9,1.3,1.3,1.9l-0.4,0.3C181.9,32.7,181.5,32.1,181,31.5z M177.7,63.1l-0.4-0.4c0.6-0.4,1.1-1,1.7-1.5
	l0.4,0.4C178.8,62,178.2,62.6,177.7,63.1z M177,27.2l0.4-0.5c0.6,0.5,1.1,1,1.7,1.5l-0.4,0.4C178.1,28.1,177.5,27.7,177,27.2z
	 M172.4,65.9c0.7-0.3,1.4-0.7,1.9-1.1l0.3,0.4c-0.7,0.4-1.4,0.8-2,1.1L172.4,65.9L172.4,65.9z M172,24.1l0.2-0.5
	c0.7,0.3,1.3,0.7,2,1l-0.3,0.5C173.3,24.7,172.6,24.4,172,24.1z M166.7,67.6c0.8-0.1,1.4-0.3,2.2-0.5l0.1,0.5
	c-0.8,0.2-1.5,0.4-2.2,0.5L166.7,67.6z M166.3,22.3l0.1-0.5c0.8,0.2,1.5,0.3,2.2,0.5l-0.1,0.5C167.8,22.6,167,22.4,166.3,22.3z
	 M162.5,111.2c0.1-0.8,0.1-1.5,0.1-2.2h0.6c0,0.8,0,1.5-0.1,2.2H162.5z M162.4,105.5l0.5-0.1c0.1,0.8,0.1,1.5,0.1,2.2h-0.6
	C162.5,107,162.5,106.3,162.4,105.5z M160.7,68.6l0.1-0.5c0.8,0.1,1.5,0.1,2.2,0.1v0.6C162.3,68.6,161.5,68.6,160.7,68.6L160.7,68.6
	z M162.4,22L162.4,22c-0.7,0-1.4,0-2,0.1l-0.1-0.5c0.7-0.1,1.4-0.1,2-0.1l0,0h0.3V22C162.6,22,162.4,22,162.4,22z M160.2,96.1
	c-0.3-0.7-0.5-1.3-0.9-2l0.5-0.2c0.3,0.7,0.6,1.4,0.9,2.1L160.2,96.1z M157,128c0.4-0.6,0.8-1.3,1.1-1.9l0.5,0.3
	c-0.4,0.7-0.8,1.4-1.1,2L157,128z M156.4,88.9l0.5-0.3c0.4,0.6,0.8,1.3,1.2,1.9l-0.4,0.3C157.2,90.1,156.8,89.6,156.4,88.9
	L156.4,88.9z M154.8,67.4l0.2-0.5c0.7,0.2,1.4,0.5,2.2,0.6L157,68C156.3,67.9,155.5,67.6,154.8,67.4z M154.4,22.7
	c0.8-0.2,1.4-0.4,2.2-0.7l0.1,0.5c-0.8,0.1-1.4,0.4-2.1,0.7C154.6,23.3,154.4,22.7,154.4,22.7z M154.1,85.9c-0.5-0.6-1-1.1-1.5-1.6
	l0.4-0.4c0.5,0.5,1,1.1,1.5,1.6L154.1,85.9z M149.4,64.7l0.3-0.5c0.6,0.4,1.3,0.8,1.9,1.1l-0.3,0.5C150.7,65.6,150,65.2,149.4,64.7
	L149.4,64.7z M149,25.5c0.6-0.4,1.3-0.8,2-1.2l0.3,0.5c-0.7,0.4-1.3,0.8-1.9,1.2C149.3,25.9,149,25.5,149,25.5z M149.9,81.8
	c-0.6-0.4-1.1-1-1.7-1.4l0.3-0.4c0.6,0.4,1.2,0.9,1.8,1.4L149.9,81.8L149.9,81.8z M144.8,60.8l0.5-0.4c0.5,0.5,1,1.1,1.6,1.6
	l-0.4,0.5C145.8,61.9,145.3,61.4,144.8,60.8L144.8,60.8z M144.5,29.6c0.5-0.6,1.1-1.1,1.6-1.6l0.4,0.4c-0.5,0.5-1.1,1-1.5,1.6
	L144.5,29.6z M145,78.3c-0.7-0.4-1.3-0.8-1.9-1.1l0.2-0.5c0.7,0.4,1.3,0.7,2,1.1L145,78.3z M141.4,55.8l0.5-0.2
	c0.4,0.7,0.7,1.3,1.1,2l-0.5,0.2C142,57.1,141.7,56.5,141.4,55.8L141.4,55.8z M141.1,34.6c0.3-0.7,0.7-1.3,1.1-2l0.5,0.3
	c-0.4,0.6-0.8,1.3-1.1,2L141.1,34.6z M138.8,142.6c0.7-0.2,1.4-0.5,2.1-0.8l0.2,0.5c-0.7,0.3-1.4,0.6-2.1,0.8L138.8,142.6
	L138.8,142.6z M139.3,50.1l0.5-0.1c0.2,0.8,0.4,1.4,0.6,2.2l-0.5,0.1C139.6,51.6,139.4,50.9,139.3,50.1L139.3,50.1z M139.2,40.3
	c0.1-0.8,0.3-1.5,0.5-2.2l0.5,0.1c-0.2,0.7-0.4,1.4-0.5,2.2C139.7,40.4,139.2,40.3,139.2,40.3z M139.3,45c0,0.4,0,0.9,0,1.3h-0.5
	c-0.1-0.8-0.1-1.5,0-2.2h0.5C139.3,44.4,139.3,44.7,139.3,45z M139.7,75.8c-0.7-0.3-1.4-0.5-2.1-0.8l0.1-0.5
	c0.8,0.2,1.4,0.4,2.2,0.8L139.7,75.8L139.7,75.8z M133,144.1c0.8-0.2,1.5-0.3,2.2-0.5l0.1,0.5c-0.8,0.1-1.5,0.3-2.2,0.5L133,144.1
	L133,144.1z M131.8,73.6l0.1-0.5c0.8,0.1,1.5,0.2,2.2,0.4L134,74C133.3,73.9,132.5,73.8,131.8,73.6z M127,144.5c0.8,0,1.5,0,2.2-0.1
	v0.5c-0.8,0.1-1.5,0.1-2.2,0.1V144.5z M125.9,73.4v-0.6c0.8,0,1.5,0,2.2,0v0.6C127.4,73.4,126.6,73.4,125.9,73.4L125.9,73.4z
	 M121,144.7l0.1-0.5c0.8,0.1,1.5,0.2,2.2,0.3l-0.1,0.5C122.5,144.9,121.8,144.8,121,144.7L121,144.7z M119.9,73.5
	c0.8-0.1,1.5-0.3,2.2-0.4l0.1,0.5c-0.8,0.1-1.5,0.2-2.2,0.4L119.9,73.5L119.9,73.5z M118.6,48.1c0.1-0.8,0.1-1.5,0.1-2.2h0.6
	c0,0.8,0,1.5-0.1,2.2H118.6z M118.5,42.5l0.5-0.1c0.1,0.8,0.2,1.5,0.2,2.2h-0.6C118.6,44,118.6,43.3,118.5,42.5z M117.5,36.7
	l0.5-0.2c0.2,0.8,0.4,1.5,0.5,2.2l-0.5,0.1C117.8,38.1,117.6,37.3,117.5,36.7z M115.9,59.7c0.3-0.7,0.5-1.3,0.8-2.1l0.5,0.1
	c-0.2,0.8-0.5,1.4-0.8,2.1L115.9,59.7z M115.4,31.1l0.5-0.2c0.3,0.7,0.6,1.4,0.9,2.1l-0.5,0.2C116,32.4,115.7,31.7,115.4,31.1z
	 M113.1,64.9c0.4-0.6,0.8-1.3,1.1-1.9l0.5,0.3c-0.4,0.7-0.8,1.3-1.1,1.9L113.1,64.9L113.1,64.9z M112.5,25.9l0.5-0.3
	c0.5,0.6,0.8,1.3,1.2,1.9l-0.5,0.3C113.3,27.2,112.9,26.5,112.5,25.9z M109.6,140.7l0.3-0.5c0.7,0.4,1.3,0.7,2,1l-0.2,0.5
	C111,141.5,110.3,141.1,109.6,140.7z M109.5,69.8c0.5-0.5,1-1.1,1.4-1.7l0.5,0.4c-0.5,0.6-1,1.2-1.5,1.7L109.5,69.8L109.5,69.8z
	 M108.8,21.3l0.4-0.4c0.5,0.5,1,1.1,1.5,1.7l-0.5,0.4C109.7,22.3,109.3,21.8,108.8,21.3z M110.9,77.2c-0.7,0.3-1.4,0.7-2,1.1
	l-0.3-0.5c0.7-0.4,1.3-0.8,1.9-1.1L110.9,77.2L110.9,77.2z M105.2,73.8c0.6-0.4,1.1-1,1.7-1.4l0.3,0.4c-0.5,0.5-1.1,1-1.7,1.5
	L105.2,73.8z M104.2,17.3l0.3-0.5c0.6,0.5,1.2,0.9,1.8,1.4l-0.4,0.5C105.5,18.2,104.9,17.8,104.2,17.3z M105.8,80.3
	c-0.6,0.4-1.2,0.9-1.7,1.4l-0.4-0.4c0.6-0.5,1.2-1,1.8-1.4L105.8,80.3L105.8,80.3z M100.3,77.1c0.7-0.4,1.3-0.8,2-1.1l0.3,0.4
	c-0.6,0.4-1.3,0.8-1.9,1.1L100.3,77.1L100.3,77.1z M99.2,14.2l0.2-0.5c0.7,0.4,1.3,0.7,2,1.1l-0.3,0.4
	C100.5,14.9,99.9,14.5,99.2,14.2z M96.5,128.5l0.5-0.3c0.4,0.6,0.8,1.3,1.3,1.9l-0.4,0.3C97.4,129.8,96.9,129.1,96.5,128.5z
	 M95.9,90.4c0.4-0.7,0.8-1.3,1.2-1.9l0.5,0.3c-0.5,0.6-0.8,1.3-1.2,1.9L95.9,90.4z M94.8,79.5c0.7-0.2,1.4-0.5,2.1-0.8l0.2,0.5
	c-0.7,0.3-1.4,0.6-2.1,0.8L94.8,79.5L94.8,79.5z M93.7,11.9l0.1-0.5c0.8,0.2,1.4,0.5,2.2,0.8l-0.2,0.5
	C95.1,12.5,94.4,12.2,93.7,11.9z M94.6,94.1c-0.3,0.7-0.6,1.3-0.9,2l-0.5-0.2c0.3-0.7,0.6-1.4,0.9-2.1L94.6,94.1L94.6,94.1z
	 M91.7,117.5l0.5-0.2c0.1,0.8,0.4,1.4,0.6,2.2l-0.5,0.1C92.1,118.9,91.9,118.1,91.7,117.5L91.7,117.5z M91.5,101.7
	c0.1-0.8,0.3-1.5,0.5-2.2l0.5,0.1c-0.2,0.8-0.4,1.4-0.5,2.2L91.5,101.7z M90.8,107.7c0-0.8,0.1-1.5,0.1-2.2l0.5,0.1
	c-0.1,0.8-0.2,1.5-0.2,2.2L90.8,107.7L90.8,107.7z M89.1,81c0.8-0.1,1.5-0.3,2.2-0.4l0.2,0.5c-0.8,0.2-1.5,0.3-2.2,0.4L89.1,81z
	 M87.9,10.6l0.1-0.5c0.8,0.1,1.5,0.2,2.2,0.4L90.1,11C89.3,10.9,88.6,10.7,87.9,10.6z M83.1,81.5c0.8,0,1.5,0,2.2-0.1V82
	C84.6,82,83.9,82,83.1,82V81.5L83.1,81.5z M82,10.4V9.8c0.8,0,1.5,0,2.2,0v0.6C83.4,10.4,82.7,10.4,82,10.4L82,10.4z M77.1,81.6
	l0.1-0.5c0.8,0.2,1.5,0.2,2.2,0.3l-0.1,0.5C78.6,81.8,77.9,81.8,77.1,81.6L77.1,81.6z M75.9,10.4c0.8-0.1,1.5-0.3,2.2-0.4l0.1,0.5
	c-0.8,0.1-1.5,0.2-2.2,0.4L75.9,10.4z M71.2,80.1l0.1-0.5c0.7,0.2,1.4,0.4,2.1,0.7l-0.1,0.5C72.7,80.6,72,80.4,71.2,80.1L71.2,80.1z
	 M70.1,12.2c0.7-0.3,1.4-0.5,2.2-0.8l0.1,0.5c-0.7,0.2-1.4,0.4-2.1,0.8L70.1,12.2L70.1,12.2z M65.7,77.7l0.3-0.5
	c0.7,0.4,1.4,0.7,2,1l-0.2,0.5C67.1,78.4,66.4,78.1,65.7,77.7L65.7,77.7z M64.6,14.8c0.7-0.4,1.4-0.8,2-1.1l0.2,0.5
	c-0.7,0.3-1.3,0.7-1.9,1C64.9,15.2,64.6,14.8,64.6,14.8z M60.7,74.4l0.4-0.4c0.6,0.4,1.2,0.9,1.8,1.4l-0.3,0.4
	C61.9,75.3,61.3,74.9,60.7,74.4z M59.8,18.2c0.6-0.4,1.2-1,1.8-1.4l0.3,0.5c-0.6,0.5-1.2,0.9-1.7,1.3L59.8,18.2z M56.2,70.3l0.4-0.4
	c0.5,0.5,1.1,1.1,1.6,1.6l-0.4,0.4C57.3,71.3,56.8,70.8,56.2,70.3L56.2,70.3z M55.4,22.5c0.5-0.6,1-1.1,1.5-1.7l0.4,0.4
	c-0.5,0.5-1.1,1.1-1.5,1.7L55.4,22.5L55.4,22.5z M52.6,65.5l0.5-0.3c0.4,0.6,0.8,1.3,1.3,1.9l-0.4,0.3
	C53.4,66.8,52.9,66.1,52.6,65.5z M52,27.4c0.4-0.7,0.8-1.3,1.2-1.9l0.4,0.3c-0.4,0.6-0.8,1.3-1.2,1.9L52,27.4L52,27.4z M49.7,60.1
	l0.5-0.2c0.3,0.7,0.6,1.4,1,2l-0.5,0.2C50.3,61.5,50,60.8,49.7,60.1z M49.3,32.8c0.3-0.7,0.6-1.4,0.9-2.1l0.5,0.2
	c-0.3,0.7-0.6,1.3-0.9,2L49.3,32.8z M47.8,54.4l0.5-0.1c0.1,0.8,0.4,1.4,0.6,2.2l-0.5,0.2C48.2,55.9,48,55.1,47.8,54.4L47.8,54.4z
	 M47.6,38.6c0.1-0.8,0.3-1.5,0.5-2.2l0.5,0.2c-0.2,0.8-0.4,1.4-0.5,2.2C48.1,38.8,47.6,38.6,47.6,38.6z M46.9,44.6
	c0-0.8,0.1-1.5,0.2-2.2l0.5,0.1c-0.1,0.8-0.2,1.5-0.2,2.2C47.4,44.6,46.9,44.6,46.9,44.6z M47.7,50.6l-0.5,0.1
	c-0.1-0.8-0.2-1.5-0.2-2.2l0.5-0.1C47.6,49.1,47.6,49.9,47.7,50.6L47.7,50.6z M91.6,113.6l-0.5,0.1c-0.1-0.8-0.1-1.5-0.2-2.2
	l0.5-0.1C91.4,112.1,91.5,112.9,91.6,113.6z M95.1,125l-0.5,0.2c-0.4-0.7-0.7-1.3-1-2l0.5-0.2C94.5,123.6,94.8,124.3,95.1,125z
	 M101.3,84.2c-0.5,0.5-1,1.1-1.5,1.6l-0.5-0.4c0.5-0.6,1-1.1,1.5-1.6L101.3,84.2z M102.1,134.5l-0.4,0.4c-0.5-0.5-1-1.1-1.6-1.6
	l0.4-0.4C101.1,133.4,101.6,134,102.1,134.5L102.1,134.5z M106.7,138.3l-0.3,0.5c-0.6-0.5-1.2-0.9-1.8-1.4l0.4-0.4
	C105.5,137.4,106.1,137.9,106.7,138.3z M116.3,74.9c-0.7,0.2-1.4,0.4-2.1,0.8l-0.2-0.5c0.7-0.3,1.4-0.5,2.2-0.8L116.3,74.9
	L116.3,74.9z M117.5,143.3l-0.2,0.5c-0.8-0.2-1.4-0.5-2.2-0.7l0.1-0.5C116,142.9,116.8,143.1,117.5,143.3z M118.7,52
	c-0.2,0.8-0.3,1.5-0.5,2.2l-0.5-0.1c0.1-0.8,0.3-1.4,0.5-2.2L118.7,52z M146.4,139.5c-0.6,0.4-1.3,0.8-1.9,1.1l-0.3-0.5
	c0.7-0.4,1.3-0.8,2-1.1L146.4,139.5L146.4,139.5z M151.2,135.8c-0.5,0.5-1.1,1-1.7,1.5l-0.4-0.5c0.6-0.5,1.1-1,1.7-1.4L151.2,135.8z
	 M155.3,131.4c-0.5,0.6-1,1.2-1.5,1.7l-0.5-0.4c0.5-0.5,1-1.1,1.4-1.7L155.3,131.4z M161.1,120.8c-0.2,0.8-0.5,1.4-0.8,2.1l-0.5-0.2
	c0.3-0.7,0.5-1.3,0.8-2.1L161.1,120.8L161.1,120.8z M162.4,101.8l-0.5,0.1c-0.1-0.8-0.3-1.4-0.5-2.2l0.5-0.1
	C162.1,100.3,162.2,101,162.4,101.8z M162.6,115c-0.1,0.8-0.3,1.5-0.5,2.2l-0.5-0.2c0.1-0.8,0.3-1.4,0.5-2.2L162.6,115L162.6,115z
	 M186,45c0,0.8,0,1.5-0.1,2.2l-0.5-0.1c0.1-0.8,0.1-1.5,0.1-2.2C185.4,45,186,45,186,45z"/>
</svg>
