<?xml version="1.0" encoding="utf-8"?>
<!-- Generator: Adobe Illustrator 22.1.0, SVG Export Plug-In . SVG Version: 6.00 Build 0)  -->
<svg version="1.1" id="Layer_1" xmlns="http://www.w3.org/2000/svg" xmlns:xlink="http://www.w3.org/1999/xlink" x="0px" y="0px"
	 viewBox="0 0 615 150" style="enable-background:new 0 0 615 150;" xml:space="preserve">
<style type="text/css">
	.st0{fill:#FFFFFF;}
	.st1{fill:#76AEFF;}
</style>
<path class="st0" d="M487.9,81.4v50.9h-22.8V17.2h22.8v42.1h13.5v22.1H487.9z M428.2,127h-44.7V20h67.1v20.6h-43.9v65.8h23.1
	c11,0,22.8-1.9,29.9-5.1v20.3C452.6,125.1,439.3,127,428.2,127L428.2,127z M358,132.4h-22.8V17.2H358v42.1h13.5v22.1H358V132.4
	L358,132.4z M299.2,127h-45.7V19.3h23.3v86.8h22.9c11,0,22.8-1.9,29.9-5.1v20.6C322.7,125.1,310.3,127,299.2,127L299.2,127z
	 M228.1,132.4h-22.8V17.2h22.8v42.1h13.5v22.1h-13.5V132.4L228.1,132.4z M123,127v-21.6c27.7-0.3,42-20.6,42-54.3V40.7h-42V20h65.2
	v31.1C188.2,97.9,163,127,123,127z"/>
<path class="st1" d="M383.2,132.8V16.9h118.5v115.9H383.2z M501.2,17.4H383.8v114.7h117.4V17.4z M253.1,16.9h118.5v115.9H253.1V16.9
	z M253.7,132.1H371V17.4H253.7V132.1L253.7,132.1z M123,16.9h119v115.9H123V16.9z M123.5,132.1h118V17.4h-118V132.1L123.5,132.1z"/>
</svg>
