<?xml version="1.0" encoding="utf-8"?>
<!-- Generator: Adobe Illustrator 22.1.0, SVG Export Plug-In . SVG Version: 6.00 Build 0)  -->
<svg version="1.1" id="Layer_1" xmlns="http://www.w3.org/2000/svg" xmlns:xlink="http://www.w3.org/1999/xlink" x="0px" y="0px"
	 viewBox="0 0 615 150" style="enable-background:new 0 0 615 150;" xml:space="preserve">
<style type="text/css">
	.st0{fill:#76AEFF;}
	.st1{fill:#FFFFFF;}
</style>
<path class="st0" d="M612.9,137.8v-1.1h0.6v1.1H612.9z M613.2,132.9H335.9c-5.6,9.5-16,16-27.9,16c-11.9,0-22.3-6.5-27.9-16H2.5v1.4
	H1.9v-1.4H1.9v-0.6h0.1V132h0.6v0.3h112v-1.7h0.6v1.7h18.6v-1.7h0.6v1.7h115v-1.7h0.6v1.7H261v-1.7h0.6v1.7h18.5
	c-0.5-0.8-0.9-1.6-1.3-2.5c15.1-2.6,29.1-9.5,38.9-20l22.7,10c-0.4,4.4-1.8,8.6-4,12.4h32.9v-1.7h0.6v1.7h17.2v-1.7h0.6v1.7h36.1
	v-1.7h0.6v1.7h23.2v-1.7h0.6v1.7h75.8v-1.7h0.6v1.7h12.2v-1.7h0.6v1.7h76.1v-1.7h0.6v2.2L613.2,132.9L613.2,132.9L613.2,132.9z
	 M612.9,124.6h0.6v2.2h-0.6V124.6z M612.9,118.6h0.6v2.2h-0.6V118.6z M612.9,112.6h0.6v2.2h-0.6V112.6z M612.9,106.7h0.6v2.2h-0.6
	V106.7z M612.9,100.7h0.6v2.2h-0.6V100.7z M612.9,94.7h0.6V97h-0.6V94.7z M612.9,88.7h0.6V91h-0.6V88.7z M612.9,82.7h0.6V85h-0.6
	V82.7z M612.9,76.7h0.6V79h-0.6V76.7z M612.9,70.8h0.6v2.2h-0.6V70.8z M612.9,64.8h0.6v2.2h-0.6V64.8z M612.9,58.8h0.6v2.2h-0.6
	V58.8z M612.9,52.8h0.6v2.2h-0.6V52.8z M612.9,46.8h0.6v2.2h-0.6V46.8z M612.9,40.8h0.6v2.2h-0.6V40.8z M612.9,34.8h0.6v2.2h-0.6
	V34.8z M612.9,28.9h0.6v2.2h-0.6V28.9L612.9,28.9z M612.9,22.9h0.6v2.2h-0.6V22.9z M612.9,17.4h-76v1.7h-0.6v-1.7h-12.2v1.7h-0.6
	v-1.7h-75.8v1.7h-0.6v-1.7h-23.2v1.7h-0.6v-1.7h-36.1v1.7h-0.6v-1.7h-17.2v1.7h-0.6v-1.7H261.3v1.7h-0.6v-1.7h-11.1v1.7H249v-1.7
	H134.1v1.7h-0.6v-1.7h-18.6v1.7h-0.6v-1.7H1.9v-0.6h611.3l0,0h0.3v2.2h-0.6V17.4z M612.9,12h0.6v1.1h-0.6V12L612.9,12z M536.3,12
	h0.6v1.1h-0.6V12L536.3,12z M523.6,12h0.6v1.1h-0.6V12L523.6,12z M447.2,12h0.6v1.1h-0.6V12L447.2,12z M423.4,12h0.6v1.1h-0.6V12
	L423.4,12z M386.8,12h0.6v1.1h-0.6V12L386.8,12z M369.2,12h0.6v1.1h-0.6V12L369.2,12z M260.7,12h0.6v1.1h-0.6V12L260.7,12z
	 M249.1,12h0.6v1.1h-0.6V12L249.1,12z M133.6,12h0.6v1.1h-0.6V12L133.6,12z M114.5,12h0.6v1.1h-0.6V12L114.5,12z M1.9,12h0.6v2.2
	H1.9V12z M2.5,74.2H1.9V72h0.6L2.5,74.2L2.5,74.2z M2.5,68.2H1.9V66h0.6L2.5,68.2L2.5,68.2z M2.5,62.2H1.9V60h0.6L2.5,62.2L2.5,62.2
	z M2.5,56.2H1.9V54h0.6L2.5,56.2L2.5,56.2z M2.5,50.2H1.9V48h0.6L2.5,50.2L2.5,50.2z M2.5,44.2H1.9V42h0.6L2.5,44.2L2.5,44.2z
	 M2.5,38.2H1.9V36h0.6C2.5,36,2.5,38.2,2.5,38.2z M2.5,32.2H1.9V30h0.6L2.5,32.2L2.5,32.2z M1.9,18h0.6v2.2H1.9V18z M2.5,26.2H1.9
	V24h0.6L2.5,26.2L2.5,26.2z M115,73h-0.6v-2.2h0.6V73z M115,67.1h-0.6v-2.2h0.6V67.1z M115,61.1h-0.6v-2.2h0.6V61.1z M115,55.1h-0.6
	v-2.2h0.6V55.1z M115,49.1h-0.6v-2.2h0.6V49.1z M115,43.1h-0.6v-2.2h0.6V43.1z M115,37.1h-0.6v-2.2h0.6V37.1z M114.5,22.9h0.6v2.2
	h-0.6V22.9z M115,31.1h-0.6v-2.2h0.6V31.1L115,31.1z M134.1,73h-0.6v-2.2h0.6V73z M134.1,67.1h-0.6v-2.2h0.6V67.1z M134.1,61.1h-0.6
	v-2.2h0.6V61.1z M134.1,55.1h-0.6v-2.2h0.6V55.1z M134.1,49.1h-0.6v-2.2h0.6V49.1z M134.1,43.1h-0.6v-2.2h0.6V43.1z M134.1,37.1
	h-0.6v-2.2h0.6V37.1z M133.6,22.9h0.6v2.2h-0.6V22.9z M134.1,31.1h-0.6v-2.2h0.6V31.1L134.1,31.1z M249.7,73h-0.6v-2.2h0.6V73z
	 M249.7,67.1h-0.6v-2.2h0.6V67.1z M249.7,61.1h-0.6v-2.2h0.6V61.1z M249.7,55.1h-0.6v-2.2h0.6V55.1z M249.7,49.1h-0.6v-2.2h0.6V49.1
	z M249.7,43.1h-0.6v-2.2h0.6V43.1z M249.7,37.1h-0.6v-2.2h0.6V37.1z M249.1,22.9h0.6v2.2h-0.6V22.9z M249.7,31.1h-0.6v-2.2h0.6V31.1
	L249.7,31.1z M261.3,73h-0.6v-2.2h0.6V73z M261.3,67.1h-0.6v-2.2h0.6V67.1z M261.3,61.1h-0.6v-2.2h0.6V61.1z M261.3,55.1h-0.6v-2.2
	h0.6V55.1z M261.3,49.1h-0.6v-2.2h0.6V49.1z M261.3,43.1h-0.6v-2.2h0.6V43.1z M261.3,37.1h-0.6v-2.2h0.6V37.1z M260.7,22.9h0.6v2.2
	h-0.6V22.9z M261.3,31.1h-0.6v-2.2h0.6V31.1L261.3,31.1z M369.7,73h-0.6v-2.2h0.6V73z M369.7,67.1h-0.6v-2.2h0.6V67.1z M369.7,61.1
	h-0.6v-2.2h0.6V61.1z M369.7,55.1h-0.6v-2.2h0.6V55.1z M369.7,49.1h-0.6v-2.2h0.6V49.1z M369.7,43.1h-0.6v-2.2h0.6V43.1z
	 M369.7,37.1h-0.6v-2.2h0.6V37.1z M369.2,22.9h0.6v2.2h-0.6V22.9z M369.7,31.1h-0.6v-2.2h0.6V31.1L369.7,31.1z M387.4,73h-0.6v-2.2
	h0.6V73z M387.4,67.1h-0.6v-2.2h0.6V67.1z M387.4,61.1h-0.6v-2.2h0.6V61.1z M387.4,55.1h-0.6v-2.2h0.6V55.1z M387.4,49.1h-0.6v-2.2
	h0.6V49.1z M387.4,43.1h-0.6v-2.2h0.6V43.1z M387.4,37.1h-0.6v-2.2h0.6V37.1z M386.8,22.9h0.6v2.2h-0.6V22.9z M387.4,31.1h-0.6v-2.2
	h0.6V31.1L387.4,31.1z M424.1,73h-0.6v-2.2h0.6V73z M424.1,67.1h-0.6v-2.2h0.6V67.1z M424.1,61.1h-0.6v-2.2h0.6V61.1z M424.1,55.1
	h-0.6v-2.2h0.6V55.1z M424.1,49.1h-0.6v-2.2h0.6V49.1z M424.1,43.1h-0.6v-2.2h0.6V43.1z M424.1,37.1h-0.6v-2.2h0.6V37.1z
	 M423.4,22.9h0.6v2.2h-0.6V22.9z M424.1,31.1h-0.6v-2.2h0.6V31.1L424.1,31.1z M447.8,73h-0.6v-2.2h0.6V73z M447.8,67.1h-0.6v-2.2
	h0.6V67.1z M447.8,61.1h-0.6v-2.2h0.6V61.1z M447.8,55.1h-0.6v-2.2h0.6V55.1z M447.8,49.1h-0.6v-2.2h0.6V49.1z M447.8,43.1h-0.6
	v-2.2h0.6V43.1z M447.8,37.1h-0.6v-2.2h0.6V37.1z M447.2,22.9h0.6v2.2h-0.6V22.9z M447.8,31.1h-0.6v-2.2h0.6V31.1L447.8,31.1z
	 M524.2,73h-0.6v-2.2h0.6V73z M524.2,67.1h-0.6v-2.2h0.6V67.1z M524.2,61.1h-0.6v-2.2h0.6V61.1z M524.2,55.1h-0.6v-2.2h0.6V55.1z
	 M524.2,49.1h-0.6v-2.2h0.6V49.1z M524.2,43.1h-0.6v-2.2h0.6V43.1z M524.2,37.1h-0.6v-2.2h0.6V37.1z M523.6,22.9h0.6v2.2h-0.6V22.9z
	 M524.2,31.1h-0.6v-2.2h0.6V31.1L524.2,31.1z M536.9,73h-0.6v-2.2h0.6V73z M536.9,67.1h-0.6v-2.2h0.6V67.1z M536.9,61.1h-0.6v-2.2
	h0.6V61.1z M536.9,55.1h-0.6v-2.2h0.6V55.1z M536.9,49.1h-0.6v-2.2h0.6V49.1z M536.9,43.1h-0.6v-2.2h0.6V43.1z M536.9,37.1h-0.6
	v-2.2h0.6V37.1z M536.3,22.9h0.6v2.2h-0.6V22.9z M536.9,31.1h-0.6v-2.2h0.6V31.1L536.9,31.1z M536.3,76.7h0.6V79h-0.6V76.7z
	 M536.3,82.7h0.6V85h-0.6V82.7z M536.3,88.7h0.6V91h-0.6V88.7z M536.3,94.7h0.6V97h-0.6V94.7L536.3,94.7z M536.3,100.7h0.6v2.2h-0.6
	V100.7z M536.3,106.7h0.6v2.2h-0.6V106.7z M536.3,112.6h0.6v2.2h-0.6V112.6z M536.9,126.9h-0.6v-2.2h0.6V126.9z M536.3,118.6h0.6
	v2.2h-0.6V118.6z M523.6,76.7h0.6V79h-0.6V76.7z M523.6,82.7h0.6V85h-0.6V82.7z M523.6,88.7h0.6V91h-0.6V88.7z M523.6,94.7h0.6V97
	h-0.6V94.7z M523.6,100.7h0.6v2.2h-0.6V100.7z M523.6,106.7h0.6v2.2h-0.6V106.7z M523.6,112.6h0.6v2.2h-0.6V112.6z M524.2,126.9
	h-0.6v-2.2h0.6V126.9z M523.6,118.6h0.6v2.2h-0.6V118.6z M447.2,76.7h0.6V79h-0.6V76.7z M447.2,82.7h0.6V85h-0.6V82.7z M447.2,88.7
	h0.6V91h-0.6V88.7z M447.2,94.7h0.6V97h-0.6V94.7z M447.2,100.7h0.6v2.2h-0.6V100.7z M447.2,106.7h0.6v2.2h-0.6V106.7z M447.2,112.6
	h0.6v2.2h-0.6V112.6z M447.8,126.9h-0.6v-2.2h0.6V126.9z M447.2,118.6h0.6v2.2h-0.6V118.6z M423.4,76.7h0.6V79h-0.6V76.7z
	 M423.4,82.7h0.6V85h-0.6V82.7z M423.4,88.7h0.6V91h-0.6V88.7z M423.4,94.7h0.6V97h-0.6V94.7z M423.4,100.7h0.6v2.2h-0.6V100.7z
	 M423.4,106.7h0.6v2.2h-0.6V106.7z M423.4,112.6h0.6v2.2h-0.6V112.6z M424.1,126.9h-0.6v-2.2h0.6V126.9z M423.4,118.6h0.6v2.2h-0.6
	V118.6z M386.8,76.7h0.6V79h-0.6V76.7z M386.8,82.7h0.6V85h-0.6V82.7z M386.8,88.7h0.6V91h-0.6V88.7z M386.8,94.7h0.6V97h-0.6V94.7z
	 M386.8,100.7h0.6v2.2h-0.6V100.7z M386.8,106.7h0.6v2.2h-0.6V106.7z M386.8,112.6h0.6v2.2h-0.6V112.6z M387.4,126.9h-0.6v-2.2h0.6
	V126.9z M386.8,118.6h0.6v2.2h-0.6V118.6z M369.2,76.7h0.6V79h-0.6V76.7z M369.2,82.7h0.6V85h-0.6V82.7z M369.2,88.7h0.6V91h-0.6
	V88.7z M369.2,94.7h0.6V97h-0.6V94.7z M369.2,100.7h0.6v2.2h-0.6V100.7z M369.2,106.7h0.6v2.2h-0.6V106.7z M369.2,112.6h0.6v2.2
	h-0.6V112.6z M369.7,126.9h-0.6v-2.2h0.6V126.9z M369.2,118.6h0.6v2.2h-0.6V118.6z M328.8,91.8c4.5,3.8,8,8.8,9.8,14.5l-14-5.9
	C326.3,97.7,327.7,94.8,328.8,91.8L328.8,91.8z M321.8,105.1l13.2,6l-0.9-2.2l0.5-0.2l1.3,3.2l-3.2,1l-0.1-0.5l2.2-0.8l-13.2-6
	L321.8,105.1L321.8,105.1z M275.7,117.6c0-0.4,0-0.7,0-1.1c0-17.8,14.5-32.3,32.3-32.3c2.8,0,5.6,0.4,8.3,1.1
	C311,102.8,295,114.4,275.7,117.6z M283.3,124.7l-2.9-1.7l2-2.8l0.5,0.3l-1.4,2c17.9-3.6,32.6-15.1,39.6-30.9l0.5,0.2
	c-7,15.9-21.9,27.5-40,31.2l2,1.2L283.3,124.7L283.3,124.7z M260.7,76.7h0.6V79h-0.6V76.7z M260.7,82.7h0.6V85h-0.6V82.7z
	 M260.7,88.7h0.6V91h-0.6V88.7z M260.7,94.7h0.6V97h-0.6V94.7z M260.7,100.7h0.6v2.2h-0.6V100.7z M260.7,106.7h0.6v2.2h-0.6V106.7z
	 M260.7,112.6h0.6v2.2h-0.6V112.6z M261.3,126.9h-0.6v-2.2h0.6V126.9z M260.7,118.6h0.6v2.2h-0.6V118.6z M249.1,76.7h0.6V79h-0.6
	V76.7z M249.1,82.7h0.6V85h-0.6V82.7z M249.1,88.7h0.6V91h-0.6V88.7z M249.1,94.7h0.6V97h-0.6V94.7z M249.1,100.7h0.6v2.2h-0.6
	V100.7z M249.1,106.7h0.6v2.2h-0.6V106.7z M249.1,112.6h0.6v2.2h-0.6V112.6z M249.7,126.9h-0.6v-2.2h0.6V126.9z M249.1,118.6h0.6
	v2.2h-0.6V118.6z M133.6,76.7h0.6V79h-0.6V76.7z M133.6,82.7h0.6V85h-0.6V82.7z M133.6,88.7h0.6V91h-0.6V88.7z M133.6,94.7h0.6V97
	h-0.6V94.7z M133.6,100.7h0.6v2.2h-0.6V100.7z M133.6,106.7h0.6v2.2h-0.6V106.7z M133.6,112.6h0.6v2.2h-0.6V112.6z M134.1,126.9
	h-0.6v-2.2h0.6V126.9z M133.6,118.6h0.6v2.2h-0.6V118.6z M114.5,76.7h0.6V79h-0.6V76.7z M114.5,82.7h0.6V85h-0.6V82.7z M114.5,88.7
	h0.6V91h-0.6V88.7z M114.5,94.7h0.6V97h-0.6V94.7z M114.5,100.7h0.6v2.2h-0.6V100.7z M114.5,106.7h0.6v2.2h-0.6V106.7z M114.5,112.6
	h0.6v2.2h-0.6V112.6z M115,126.9h-0.6v-2.2h0.6V126.9z M114.5,118.6h0.6v2.2h-0.6V118.6z M1.9,78h0.6v2.2H1.9V78z M1.9,84h0.6v2.2
	H1.9V84z M1.9,90h0.6v2.2H1.9V90z M1.9,96.1h0.6v2.2H1.9V96.1z M1.9,102.1h0.6v2.2H1.9V102.1z M1.9,108.1h0.6v2.2H1.9V108.1z
	 M1.9,114.1h0.6v2.2H1.9V114.1z M2.5,128.3H1.9v-2.3h0.6L2.5,128.3L2.5,128.3z M1.9,120.1h0.6v2.2H1.9V120.1z M613.2,75.1H1.9v-0.6
	h611.3V75.1z M115,137.8h-0.6v-1.1h0.6V137.8z M134.1,137.8h-0.6v-1.1h0.6V137.8z M249.7,137.8h-0.6v-1.1h0.6V137.8z M261.3,137.8
	h-0.6v-1.1h0.6V137.8z M369.7,137.8h-0.6v-1.1h0.6V137.8z M387.4,137.8h-0.6v-1.1h0.6V137.8z M424.1,137.8h-0.6v-1.1h0.6V137.8z
	 M447.8,137.8h-0.6v-1.1h0.6V137.8z M524.2,137.8h-0.6v-1.1h0.6V137.8z M536.9,137.8h-0.6v-1.1h0.6V137.8z"/>
<path class="st1" d="M612.8,100.1c0,18.1-15.4,31.8-38.1,31.8c-23.2,0-37.5-14-38.3-32.9h14c0.4,11.6,9.1,20.6,24.3,20.6
	c15.2,0,24.2-8.6,24.2-19.4c0-12.2-9.8-19.3-26-19.3h-11.8V69.3h11.8c13.8,0,23.1-7.8,23.1-19c0-10.5-8.4-19.1-22.7-19.1
	c-14.5,0-22.6,10.3-22.6,21.7h-14.2c0-19,14.5-33.8,36.8-33.8c22.3,0,36.8,13.9,36.8,30.9c0,13.2-9.3,22.3-19.3,24.8
	C601.6,76.7,612.8,85.2,612.8,100.1L612.8,100.1z M448.7,120.4L487,82c13.8-13.9,19.2-22.7,19.2-30.3c0-12.7-8.6-20.1-22.1-20.1
	c-14.6,0-22.4,11-22.4,23h-14.2c0-19.6,14.2-35.6,36.8-35.6c21.8,0,36.1,13,36.1,32.5c0,11.6-6.6,21.4-22.8,38l-28.4,27.8h54.8v12.3
	h-75.3V120.4z M409.5,34h-22.4V21.5h36.6v108h-14.2V34z M340.1,119.8c0.1-1.1,0.2-2.2,0.2-3.3c0-3.5-0.6-7-1.7-10.3l34.4,14.5
	l-4.7,11.6L340.1,119.8z M356.7,17.2h12.7v82h-12.7V17.2z M327.5,59.2h-19.9c-6.4,20.9-24.8,31.3-46.9,31.3V78.8
	c16.7-0.2,28.9-6.1,33.9-19.8h-33.9V47.8h36.3c0.1-1.7,0.3-3.7,0.3-5.5V31.4h-36.6V20.1h49.3v22.1c0,1.7,0,3.2-0.1,4.7h17.5v-29H340
	v63.6h-12.5L327.5,59.2L327.5,59.2z M233,132.4h-13.3V17.2H233v46.6h16.2v12.8H233V132.4z M134.1,21.5h64.1v104.1h-64.1L134.1,21.5
	L134.1,21.5z M147.5,113.1h37.4V33.8h-37.4V113.1z M58.9,132c-33.1,0-56.7-23.9-56.7-56.6S25.9,19,58.9,19
	c27.5,0,48.1,16.1,53.8,36.7H97.4C93,42,77.7,31.9,59.2,31.9c-25,0-42.8,18.2-42.8,43.6c0,25.5,17.8,43.8,43.1,43.8
	c22.1,0,38.6-14.5,40.2-34.1h-43V72.9h58.2v4.9C114.8,109.6,90.5,132,58.9,132L58.9,132z M278.5,129.8c-4.5,0.8-9.1,1.2-13.7,1.2
	v-12.5c3.7,0,7.3-0.3,10.9-0.9C275.8,121.8,276.8,126,278.5,129.8z M330.4,86.7c-0.5,1.7-1,3.4-1.7,5c-3.6-3.1-7.9-5.2-12.4-6.5
	c0.1-0.5,0.3-1.1,0.4-1.5L330.4,86.7L330.4,86.7z"/>
</svg>
