<svg xmlns="http://www.w3.org/2000/svg" width="56" height="75" viewBox="0 0 56 75">
  <metadata><?xpacket begin="﻿" id="W5M0MpCehiHzreSzNTczkc9d"?>
<x:xmpmeta xmlns:x="adobe:ns:meta/" x:xmptk="Adobe XMP Core 5.6-c140 79.160451, 2017/05/06-01:08:21        ">
   <rdf:RDF xmlns:rdf="http://www.w3.org/1999/02/22-rdf-syntax-ns#">
      <rdf:Description rdf:about=""/>
   </rdf:RDF>
</x:xmpmeta>
                                                                                                    
                                                                                                    
                                                                                                    
                                                                                                    
                                                                                                    
                                                                                                    
                                                                                                    
                                                                                                    
                                                                                                    
                                                                                                    
                                                                                                    
                                                                                                    
                                                                                                    
                                                                                                    
                                                                                                    
                                                                                                    
                                                                                                    
                                                                                                    
                                                                                                    
                                                                                                    
                           
<?xpacket end="w"?></metadata>
<defs>
    <style>
      .cls-1 {
        fill: #00c01e;
      }

      .cls-1, .cls-2, .cls-3 {
        fill-rule: evenodd;
      }

      .cls-2 {
        fill: #0028ac;
      }

      .cls-3 {
        fill: #fff;
      }
    </style>
  </defs>
  <path id="_-e-download_icon" data-name="-e-download_icon" class="cls-1" d="M49.661,21.753L48.8,20.869l-4.45,4.558V15.686H43.127v9.741l-4.45-4.558-0.863.884,5.923,6.067ZM37.922,29.935H49.553v-1.25H37.922v1.25Z"/>
  <path id="_-e-next_blue" data-name="-e-next_blue" class="cls-2" d="M19.949,66.1L18.9,65.026,31.731,51.89,18.9,38.753l1.049-1.074L33.829,51.89Z"/>
  <path id="_-e-prev_blue" data-name="-e-prev_blue" class="cls-2" d="M14.13,37.81l1.049,1.077L2.348,52.062,15.179,65.237,14.13,66.314,0.249,52.062Z"/>
  <path id="_-e-next_white" data-name="-e-next_white" class="cls-3" d="M19.949,28.6L18.9,27.526,31.731,14.389,18.9,1.253l1.049-1.074L33.829,14.389Z"/>
  <path id="_-e-prev_white" data-name="-e-prev_white" class="cls-3" d="M14.13,0.309l1.049,1.077L2.348,14.562,15.179,27.736,14.13,28.814,0.249,14.562Z"/>
  <path id="_-e-V" data-name="-e-V" class="cls-3" d="M45.36,9.779a0.761,0.761,0,0,1-.541-0.226L37.932,2.626a0.772,0.772,0,0,1,0-1.088,0.762,0.762,0,0,1,1.082,0L45.36,7.92l6.346-6.383a0.762,0.762,0,0,1,1.082,0,0.773,0.773,0,0,1,0,1.088L45.9,9.553A0.76,0.76,0,0,1,45.36,9.779Z"/>
  <path id="_-e-v-2" data-name="-e-v" class="cls-3" d="M43.123,43.894a0.557,0.557,0,0,1-.4-0.165l-5.043-5.072a0.566,0.566,0,0,1,0-.8,0.558,0.558,0,0,1,.792,0l4.647,4.674L47.77,37.86a0.558,0.558,0,0,1,.793,0,0.566,0.566,0,0,1,0,.8L43.52,43.729A0.556,0.556,0,0,1,43.123,43.894Z"/>
</svg>
